<svg width="31" height="41" viewBox="0 0 31 41" fill="none" xmlns="http://www.w3.org/2000/svg">
<path d="M29.0645 0.789062V8.14952L16.5693 1.61874V0.789063H14.9033V1.61874L2.4082 8.14952V0.789062H0.742188V33.1597L15.3065 40.7734H16.2461L30.7305 33.1581V0.789063L29.0645 0.789062ZM14.9033 3.49967V16.5596L2.4082 10.0305L14.9033 3.49967ZM2.4082 11.9081L13.4889 17.5792L2.4082 23.4919V11.9081ZM14.9033 18.8403V31.9002L2.4082 25.3711L14.9033 18.842V18.8403ZM29.0645 32.1518L15.8346 39.1074L2.4082 32.1501V27.2504L15.7363 34.216L29.0645 27.2504V32.1518ZM16.5693 31.9002V18.8403L29.0645 25.3695L16.5693 31.9002ZM29.0645 23.4902L17.9838 17.6991L29.0645 11.9081V23.4902ZM16.5693 16.5579V3.49967L29.0645 10.0288L16.5693 16.5579Z" fill="black"/>
</svg>
