<svg width="25" height="27" viewBox="0 0 25 27" fill="none" xmlns="http://www.w3.org/2000/svg">
<path d="M11.0474 0.0577869C10.8817 0.0785046 10.3845 0.192448 9.94943 0.296034C7.29763 0.969343 5.08089 2.82353 3.84822 5.3821C3.23706 6.66657 3.01953 7.64028 2.94702 9.43231L2.88487 10.9654H2.44981C1.52789 10.9654 0.502392 11.7526 0.170917 12.716C-0.0569723 13.3893 -0.0569723 18.2578 0.170917 18.8068C0.429882 19.418 0.782074 19.8013 1.37251 20.1327C1.91116 20.4228 1.99403 20.4435 3.50639 20.4746C5.08089 20.516 5.08089 20.516 5.33986 20.257L5.60918 19.9877V15.8443C5.60918 11.7734 5.56775 11.2451 5.26735 11.0483C5.19484 11.0068 4.94623 10.9654 4.70798 10.9654H4.26256V9.77415C4.26256 7.09127 5.08089 5.12314 6.89365 3.42433C8.34385 2.07771 10.2602 1.33189 12.2801 1.33189C15.9056 1.33189 18.8682 3.53827 20.0076 7.08091C20.1941 7.661 20.2562 8.13749 20.2977 9.38052L20.3391 10.9654H19.8833C19.0339 10.9654 19.0754 10.7479 19.0754 15.7511C19.0754 20.7128 19.0236 20.3917 19.8937 20.4953L20.3702 20.5471L19.8833 21.0443C19.0028 21.9248 17.9566 22.422 16.61 22.6084C16.2475 22.6602 16.1646 22.6395 16.1128 22.4945C15.8124 21.5104 15.253 20.8268 14.3933 20.3917C13.8546 20.1327 13.6371 20.081 12.9741 20.081C12.3216 20.081 12.0729 20.1327 11.5654 20.371C10.4466 20.8993 9.75262 21.9766 9.75262 23.1989C9.75262 24.1208 9.99087 24.7423 10.5917 25.4053C11.2961 26.1718 11.9383 26.4515 13.0156 26.4411C13.9064 26.4411 14.5279 26.2132 15.2116 25.6332C15.4913 25.3949 15.9678 24.5766 16.1128 24.0897C16.1542 23.9654 16.2785 23.9136 16.5168 23.9136C17.0761 23.9136 18.4538 23.5304 19.1582 23.1678C19.9558 22.7742 21.0228 21.8108 21.5614 21.0132C21.9033 20.516 22.0276 20.4021 22.359 20.3399C23.2292 20.1742 23.9335 19.6045 24.1511 18.8586C24.2339 18.61 24.2547 17.5327 24.2339 15.7821C24.2029 13.1718 24.1925 13.0785 23.9543 12.6228C23.8196 12.3638 23.6021 12.0116 23.4674 11.8355C23.1774 11.4522 22.3176 10.9654 21.9343 10.9654H21.665V9.8363C21.665 6.85302 20.8467 4.77095 18.92 2.82353C17.4076 1.29046 15.9056 0.482489 13.9479 0.140656C13.1088 -0.00436401 11.7933 -0.0457993 11.0474 0.0577869ZM4.26256 15.7303V19.1487H3.2785C2.18048 19.1487 1.82829 19.0347 1.50718 18.5582C1.33108 18.2889 1.31036 18.0507 1.31036 15.7821C1.31036 13.6172 1.33108 13.2546 1.48646 12.9646C1.80758 12.3949 2.01475 12.312 3.19563 12.312H4.26256V15.7303ZM22.2658 12.4777C22.3901 12.5606 22.5973 12.8299 22.7319 13.0682C22.9495 13.4825 22.9598 13.6172 22.9598 16.01V18.5272L22.6698 18.8068C22.4005 19.0762 22.3176 19.0969 21.3542 19.128L20.3184 19.1694V15.7407V12.312H21.1782C21.7893 12.312 22.1001 12.3638 22.2658 12.4777ZM13.6682 21.4794C14.4658 21.8212 14.8594 22.422 14.8594 23.3025C14.8594 24.0379 14.5694 24.5351 13.9375 24.9081C13.5439 25.1359 13.3781 25.1774 12.8706 25.1359C11.2443 25.022 10.4674 23.2092 11.5136 22.0077C12.0937 21.3447 12.8809 21.1582 13.6682 21.4794Z" fill="white"/>
</svg>
