<svg width="38" height="38" viewBox="0 0 38 38" fill="none" xmlns="http://www.w3.org/2000/svg">
<path d="M37.7045 1.2714V36.5761C37.7045 36.9998 37.3607 37.3436 36.937 37.3436C36.5134 37.3436 36.1695 36.9998 36.1695 36.5761V18.9145C36.1695 18.9145 36.1695 18.9176 36.1695 18.9192C36.1695 18.9207 36.1695 18.9222 36.1695 18.9238C36.1695 19.0297 36.148 19.1294 36.1097 19.22C36.0406 19.6943 35.8641 20.1548 35.4987 20.5201L30.5806 25.5979C30.4287 25.7545 30.2291 25.8312 30.0296 25.8312C29.8377 25.8312 29.6443 25.7591 29.4954 25.6148C29.1915 25.3201 29.1838 24.8335 29.477 24.5295L34.1648 19.6913H4.40296L9.09082 24.5295C9.384 24.8335 9.37786 25.3201 9.0724 25.6148C8.9235 25.7591 8.73009 25.8312 8.53822 25.8312C8.33714 25.8312 8.13759 25.7529 7.98716 25.5979L3.05985 20.5125C2.66996 20.1226 2.48269 19.6191 2.43511 19.1049C2.41976 19.045 2.39827 18.9882 2.39827 18.9253C2.39827 18.9238 2.39827 18.9222 2.39827 18.9207C2.39827 18.9192 2.39827 18.9176 2.39827 18.9161V36.5777C2.39827 37.0013 2.05443 37.3451 1.63078 37.3451C1.20712 37.3451 0.863281 37.0013 0.863281 36.5777V1.2714C0.864816 0.847744 1.20865 0.503906 1.63231 0.503906C2.05597 0.503906 2.3998 0.847744 2.3998 1.2714V18.8685C2.40748 18.2883 2.62698 17.708 3.07059 17.2644L7.99176 12.245C8.29109 11.9457 8.77461 11.9396 9.07854 12.2343C9.37939 12.5305 9.38553 13.0187 9.08928 13.3211L4.3477 18.1547H34.2247L29.4816 13.3211C29.1853 13.0187 29.1915 12.5305 29.4923 12.2343C29.7963 11.9396 30.2829 11.9457 30.5791 12.245L35.5064 17.2675C35.947 17.708 36.1665 18.2883 36.1711 18.87V1.2714C36.1711 0.847744 36.5149 0.503906 36.9386 0.503906C37.3622 0.503906 37.7045 0.847744 37.7045 1.2714Z" fill="black"/>
</svg>
