<svg width="65" height="63" viewBox="0 0 65 63" fill="none" xmlns="http://www.w3.org/2000/svg">
<path d="M30.933 55.3067L15.9615 50.6014C15.4317 50.4349 15.1391 49.8686 15.3097 49.3401L30.4259 2.52861C30.4746 2.37784 30.5576 2.23927 30.6743 2.13208C32.5291 0.427967 34.2138 1.25561 34.9178 2.1838C34.9747 2.25886 35.0144 2.34481 35.0428 2.43463L49.7061 48.8687C49.8696 49.3863 49.5903 49.9397 49.0769 50.1157L34.0538 55.2665C33.0445 55.6126 31.9509 55.6267 30.933 55.3067Z" stroke="black" stroke-width="1.5"/>
<path d="M17.5 42.2988H47.5" stroke="black" stroke-width="1.5"/>
<path d="M22 28.2988L43.5 28.2988" stroke="black" stroke-width="1.5"/>
<path d="M26 15.2988L39 15.2988" stroke="black" stroke-width="1.5"/>
<path d="M53 46.7988L62.2351 49.9889C63.1361 50.3002 63.1321 51.5759 62.229 51.8814L33.0132 61.7648C31.9884 62.1114 30.8788 62.1164 29.851 61.7788L2.74809 52.8787C1.8457 52.5823 1.82593 51.313 2.71866 50.9887L11.5 47.7988" stroke="black" stroke-width="1.5"/>
<circle cx="32" cy="36.2988" r="1" fill="black"/>
<circle cx="32" cy="49.2988" r="1" fill="black"/>
<circle cx="32" cy="22.2988" r="1" fill="black"/>
<circle cx="32" cy="9.29883" r="1" fill="black"/>
</svg>
