<svg width="41" height="41" viewBox="0 0 41 41" fill="none" xmlns="http://www.w3.org/2000/svg">
<path d="M32.9435 25.4273V16.4008L40.5391 8.8052L31.7423 0.00844705L24.1484 7.60234H15.2047C15.2047 3.41092 11.7938 0 7.60234 0C3.41092 0 0 3.41092 0 7.60234C0 11.5049 2.9666 14.6928 6.75764 15.1185V27.0305H0.844705V40.5458H14.36V27.0305H8.44705V15.1185C11.6721 14.7553 14.2907 12.3986 15.0003 9.29175H23.4321L31.2541 17.1137V25.4273C27.463 25.8547 24.4964 29.0426 24.4964 32.9452C24.4964 37.1366 27.9074 40.5475 32.0988 40.5475C36.2902 40.5475 39.7011 37.1366 39.7011 32.9452C39.7011 29.0426 36.7345 25.8547 32.9435 25.4273ZM12.6706 38.8581H2.53411V28.7216H12.6706V38.8581ZM7.60234 13.517C4.34178 13.517 1.68941 10.8646 1.68941 7.60403C1.68941 4.34347 4.34178 1.6911 7.60234 1.6911C10.8629 1.6911 13.5153 4.34347 13.5153 7.60403C13.5153 10.8646 10.8629 13.517 7.60234 13.517ZM31.7423 2.39727L38.1502 8.8052L31.7423 15.2131L25.3344 8.8052L31.7423 2.39727ZM32.0988 38.8581C28.8382 38.8581 26.1858 36.2057 26.1858 32.9452C26.1858 29.6846 28.8382 27.0322 32.0988 27.0322C35.3593 27.0322 38.0117 29.6846 38.0117 32.9452C38.0117 36.2057 35.3593 38.8581 32.0988 38.8581Z" fill="black"/>
</svg>
