<svg width="14" height="10" viewBox="0 0 14 10" fill="none" xmlns="http://www.w3.org/2000/svg">
<path d="M1.44275 4.32461C1.08376 4.32461 0.792749 4.61562 0.792749 4.97461C0.792749 5.33359 1.08376 5.62461 1.44275 5.62461V4.32461ZM13.4596 5.43423C13.7135 5.18039 13.7135 4.76883 13.4596 4.51499L9.32307 0.378416C9.06923 0.124575 8.65767 0.124575 8.40383 0.378416C8.14999 0.632256 8.14999 1.04381 8.40383 1.29765L12.0808 4.97461L8.40383 8.65156C8.14999 8.90541 8.14999 9.31696 8.40383 9.5708C8.65767 9.82464 9.06923 9.82464 9.32307 9.5708L13.4596 5.43423ZM1.44275 4.97461V5.62461L13 5.62461V4.97461V4.32461L1.44275 4.32461V4.97461Z" fill="white"/>
</svg>
