<svg width="24" height="24" viewBox="0 0 24 24" fill="none" xmlns="http://www.w3.org/2000/svg">
<path d="M0.741211 12.2C0.741211 11.864 0.853215 11.6026 1.07722 11.4159C1.3199 11.2106 1.59991 11.1079 1.91726 11.1079H22.6101C22.9088 11.1079 23.1701 11.2106 23.3941 11.4159C23.6181 11.6026 23.7301 11.864 23.7301 12.2C23.7301 12.5546 23.6181 12.8347 23.3941 13.04C23.1701 13.2267 22.9088 13.32 22.6101 13.32H1.88926C1.59058 13.32 1.3199 13.2267 1.07722 13.04C0.853215 12.8347 0.741211 12.5546 0.741211 12.2ZM12.1377 23.2604C11.8017 23.2604 11.531 23.1484 11.3256 22.9244C11.139 22.6817 11.0456 22.4017 11.0456 22.0844V1.39153C11.0456 1.09285 11.139 0.831505 11.3256 0.607497C11.531 0.383489 11.8017 0.271484 12.1377 0.271484C12.4924 0.271484 12.763 0.383489 12.9497 0.607497C13.155 0.831505 13.2577 1.09285 13.2577 1.39153V22.1124C13.2577 22.411 13.155 22.6817 12.9497 22.9244C12.763 23.1484 12.4924 23.2604 12.1377 23.2604Z" fill="black"/>
</svg>
