<svg width="63" height="47" viewBox="0 0 63 47" fill="none" xmlns="http://www.w3.org/2000/svg">
<path d="M24.5 9.64453V6.14453C24.5 5.59225 24.9477 5.14453 25.5 5.14453H37.5C38.0523 5.14453 38.5 5.59225 38.5 6.14453V9.64453" stroke="black" stroke-width="1.5"/>
<path d="M20 10.1445V5.14453C20 2.93539 21.7909 1.14453 24 1.14453H39C41.2091 1.14453 43 2.93539 43 5.14453V10.1445" stroke="black" stroke-width="1.5"/>
<path d="M19 46.1445L21.0581 40.3132C21.6225 38.714 23.1341 37.6445 24.8301 37.6445H37.8212C39.4421 37.6445 40.9028 38.6227 41.5199 40.1215L44 46.1445" stroke="black" stroke-width="1.5"/>
<path d="M38.8037 28.1445H60C61.1046 28.1445 62 27.2491 62 26.1445V23.1445C62 22.04 61.1046 21.1445 60 21.1445H3.5C2.39543 21.1445 1.5 22.04 1.5 23.1445V26.1445C1.5 27.2491 2.39543 28.1445 3.5 28.1445H24" stroke="black" stroke-width="1.5"/>
<path d="M24.5 21.1445V28.1445C24.5 29.8014 25.8431 31.1445 27.5 31.1445H35.5C37.1569 31.1445 38.5 29.8014 38.5 28.1445V21.1445" stroke="black" stroke-width="1.5"/>
<path d="M5 21.1445L11.2029 12.6155C12.332 11.063 14.1357 10.1445 16.0553 10.1445H47.0284C48.9009 10.1445 50.6661 11.0188 51.8009 12.5083L58 20.6445" stroke="black" stroke-width="1.5"/>
<path d="M5 28.1445L11.4164 42.5814C12.3794 44.7481 14.5281 46.1445 16.8992 46.1445H46.0436C48.4438 46.1445 50.613 44.7142 51.5585 42.508L57.5 28.6445" stroke="black" stroke-width="1.5"/>
</svg>
