<svg width="65" height="42" viewBox="0 0 65 42" fill="none" xmlns="http://www.w3.org/2000/svg">
<path d="M36.9839 1.14453H28.0135C26.8406 1.14453 25.9194 2.14926 26.021 3.31779L27.5677 21.1053C27.7716 23.4493 28.6703 25.9703 30.9012 26.718C32.335 27.1985 33.646 27.0124 34.7238 26.546C36.5357 25.7619 37.2053 23.6847 37.3764 21.7179L38.9764 3.31779C39.078 2.14926 38.1568 1.14453 36.9839 1.14453Z" stroke="black" stroke-width="1.5"/>
<path d="M47.3698 5.75977C46.1391 5.75977 45.4895 7.46917 45.3185 8.32387L43.7801 23.7085C43.6091 24.2213 43.5749 25.3495 44.8057 25.7598C46.0365 26.17 46.6861 25.2469 46.857 24.7341L49.216 8.32387C49.216 7.46917 48.9083 5.75977 47.3698 5.75977Z" stroke="black" stroke-width="1.5"/>
<path d="M20.0953 13.649L19.5016 7.73698C19.296 6.90736 18.5863 5.32211 17.093 5.69207C15.8983 5.98804 15.6789 7.80349 15.7185 8.67422L17.9248 23.9773C17.8822 24.5162 18.1203 25.6195 19.4136 25.7218C20.7069 25.824 21.1155 24.7718 21.1581 24.233L20.3331 16.0173" stroke="black" stroke-width="1.5" stroke-linecap="round"/>
<path d="M44.2937 34.9902H4.80654C3.60996 34.9902 1.2168 35.6056 1.2168 38.0672C1.2168 40.5287 3.26808 41.1441 4.29372 41.1441H15.5758" stroke="black" stroke-width="1.5" stroke-linecap="round"/>
<path d="M18.6523 41.1441H61.2164C62.0711 40.9731 63.3825 40.172 63.7806 38.58C64.2934 36.5287 62.2421 34.9902 61.2164 34.9902C60.3959 34.9902 51.9857 34.9902 47.8831 34.9902" stroke="black" stroke-width="1.5" stroke-linecap="round"/>
<path d="M4.80664 34.9904C4.80664 30.0331 6.96049 18.1699 15.5759 10.375" stroke="black" stroke-width="1.5"/>
<path d="M60.1914 34.9915C60.1914 30.0342 57.5247 17.6582 48.9094 9.86328" stroke="black" stroke-width="1.5"/>
<path d="M19.6787 7.81215C21.5591 6.95745 25.5249 5.24805 26.3454 5.24805" stroke="black" stroke-width="1.5"/>
<path d="M45.832 7.81215C43.9517 6.95745 39.9859 5.24805 39.1654 5.24805" stroke="black" stroke-width="1.5"/>
</svg>
