<svg width="25" height="23" viewBox="0 0 25 23" fill="none" xmlns="http://www.w3.org/2000/svg">
<path d="M13.8867 22.9386L12.3516 22.0564L15.8806 15.8806H21.1741C21.6421 15.8806 22.0909 15.6947 22.4218 15.3638C22.7527 15.0329 22.9386 14.584 22.9386 14.1161V3.52902C22.9386 3.06104 22.7527 2.61223 22.4218 2.28132C22.0909 1.95041 21.6421 1.76451 21.1741 1.76451H3.52902C3.06104 1.76451 2.61223 1.95041 2.28132 2.28132C1.95041 2.61223 1.76451 3.06104 1.76451 3.52902V14.1161C1.76451 14.584 1.95041 15.0329 2.28132 15.3638C2.61223 15.6947 3.06104 15.8806 3.52902 15.8806H11.4693V17.6451H3.52902C2.59306 17.6451 1.69544 17.2733 1.03363 16.6115C0.371806 15.9496 0 15.052 0 14.1161V3.52902C0 2.59306 0.371806 1.69544 1.03363 1.03363C1.69544 0.371806 2.59306 0 3.52902 0H21.1741C22.1101 0 23.0077 0.371806 23.6695 1.03363C24.3313 1.69544 24.7031 2.59306 24.7031 3.52902V14.1161C24.7031 15.052 24.3313 15.9496 23.6695 16.6115C23.0077 17.2733 22.1101 17.6451 21.1741 17.6451H16.904L13.8867 22.9386Z" fill="white"/>
<path d="M5.29297 5.29297H19.409V7.05748H5.29297V5.29297Z" fill="white"/>
<path d="M5.29297 10.5879H14.1155V12.3524H5.29297V10.5879Z" fill="white"/>
</svg>
