<svg width="19" height="20" viewBox="0 0 19 20" fill="none" xmlns="http://www.w3.org/2000/svg">
<path d="M13.8243 3.04394V0.599609M5.00916 3.04394V0.599609M0.846429 6.71045H17.9871M0.601562 9.20856C0.601562 6.62367 0.601563 5.33062 1.02861 4.34311C1.41454 3.46209 2.01379 2.75585 2.74071 2.32531C3.57914 1.82178 4.67614 1.82178 6.87014 1.82178H11.9634C14.1574 1.82178 15.2544 1.82178 16.0928 2.32531C16.8303 2.76773 17.4288 3.47415 17.8049 4.34189C18.2319 5.33184 18.2319 6.6249 18.2319 9.20978V11.2131C18.2319 13.798 18.2319 15.091 17.8049 16.0785C17.419 16.9595 16.8197 17.6658 16.0928 18.0963C15.2544 18.5986 14.1574 18.5986 11.9634 18.5986H6.87014C4.67614 18.5986 3.57914 18.5986 2.74071 18.0951C2.01394 17.6649 1.41471 16.9591 1.02861 16.0785C0.601563 15.0886 0.601562 13.7955 0.601562 11.2106V9.20856Z" stroke="black" stroke-width="1.2" stroke-linecap="round" stroke-linejoin="round"/>
</svg>
