<svg width="50" height="51" viewBox="0 0 50 51" fill="none" xmlns="http://www.w3.org/2000/svg">
<g clip-path="url(#clip0_4229_63)">
<path d="M30.1487 28.3439C30.4939 28.0506 30.7712 27.6856 30.9614 27.2743C31.1515 26.8633 31.25 26.4156 31.25 25.9626C31.25 25.5095 31.1515 25.062 30.9614 24.6508C30.7712 24.2395 30.4939 23.8747 30.1487 23.5814L6.71119 3.2605C6.25661 2.87379 5.70098 2.62532 5.10973 2.54445C4.51848 2.46358 3.9164 2.55371 3.37473 2.80416C2.83306 3.05462 2.37431 3.45493 2.05306 3.95779C1.7316 4.46062 1.56098 5.04498 1.56119 5.64175V46.2668C1.56098 46.8635 1.7316 47.4478 2.05306 47.9508C2.37431 48.4535 2.83306 48.8539 3.37473 49.1043C3.9164 49.3547 4.51848 49.4449 5.10973 49.3641C5.70098 49.2833 6.25661 49.0347 6.71119 48.6481L30.1487 28.3439Z" stroke="black" stroke-width="1.5" stroke-linecap="round" stroke-linejoin="round"/>
<path d="M18.7508 44.7191V46.2816C18.7506 46.8782 18.9212 47.4626 19.2426 47.9655C19.5639 48.4684 20.0226 48.8686 20.5643 49.1191C21.106 49.3695 21.7081 49.4597 22.2993 49.3789C22.8906 49.298 23.4462 49.0495 23.9008 48.6628L47.3362 28.3441C47.6814 28.0507 47.9587 27.6857 48.1488 27.2745C48.339 26.8634 48.4375 26.4157 48.4375 25.9628C48.4375 25.5097 48.339 25.0622 48.1488 24.6509C47.9587 24.2399 47.6814 23.8749 47.3362 23.5816L23.8987 3.26069C23.4435 2.87417 22.8872 2.62612 22.2956 2.54591C21.7039 2.46569 21.1016 2.55667 20.5599 2.80807C20.0185 3.05946 19.5601 3.46075 19.2395 3.96446C18.9189 4.46817 18.7493 5.05319 18.7508 5.65027V7.21902" stroke="black" stroke-width="1.5" stroke-linecap="round" stroke-linejoin="round"/>
</g>
<defs>
<clipPath id="clip0_4229_63">
<rect width="50" height="50" fill="white" transform="matrix(-1 0 0 1 50 0.96875)"/>
</clipPath>
</defs>
</svg>
