<svg width="23" height="30" viewBox="0 0 23 30" fill="none" xmlns="http://www.w3.org/2000/svg">
<path d="M14.6387 1.27734V7.33897C14.6387 7.53798 14.6779 7.73503 14.754 7.91889C14.8302 8.10275 14.9418 8.26981 15.0825 8.41053C15.2232 8.55124 15.3903 8.66287 15.5742 8.73902C15.758 8.81518 15.9551 8.85438 16.1541 8.85438H22.2157" stroke="black" stroke-width="1.5" stroke-linecap="round" stroke-linejoin="round"/>
<path d="M19.1849 28.5547H4.03081C3.22699 28.5547 2.45609 28.2353 1.88771 27.667C1.31932 27.0986 1 26.3277 1 25.5239V4.30816C1 3.50434 1.31932 2.73344 1.88771 2.16505C2.45609 1.59666 3.22699 1.27734 4.03081 1.27734H14.6387L22.2157 8.85438V25.5239C22.2157 26.3277 21.8964 27.0986 21.328 27.667C20.7596 28.2353 19.9887 28.5547 19.1849 28.5547Z" stroke="black" stroke-width="1.5" stroke-linecap="round" stroke-linejoin="round"/>
</svg>
