<svg width="37" height="37" viewBox="0 0 37 37" fill="none" xmlns="http://www.w3.org/2000/svg">
<path d="M30.0609 0H6.93713C3.11246 0 0 3.11246 0 6.93713V30.0609C0 33.8856 3.11246 36.998 6.93713 36.998H30.0609C33.8856 36.998 36.998 33.8856 36.998 30.0609V6.93713C36.998 3.11246 33.8856 0 30.0609 0ZM6.93713 1.54159H30.0609C32.771 1.54159 35.0002 3.55798 35.3778 6.16634H1.62021C1.99789 3.55798 4.22703 1.54159 6.93713 1.54159ZM30.0609 35.4565H6.93713C3.96187 35.4565 1.54159 33.0362 1.54159 30.0609V7.70793H35.4565V30.0609C35.4565 33.0362 33.0362 35.4565 30.0609 35.4565ZM6.16634 13.1035C6.16634 12.678 6.51166 12.3327 6.93713 12.3327H13.1035C13.529 12.3327 13.8743 12.678 13.8743 13.1035C13.8743 13.529 13.529 13.8743 13.1035 13.8743H6.93713C6.51166 13.8743 6.16634 13.529 6.16634 13.1035ZM21.5822 20.8114C21.5822 21.2369 21.2369 21.5822 20.8114 21.5822H11.5619C11.1364 21.5822 10.7911 21.2369 10.7911 20.8114C10.7911 20.3859 11.1364 20.0406 11.5619 20.0406H20.8114C21.2369 20.0406 21.5822 20.3859 21.5822 20.8114ZM21.5822 28.5193C21.5822 28.9448 21.2369 29.2901 20.8114 29.2901H6.93713C6.51166 29.2901 6.16634 28.9448 6.16634 28.5193C6.16634 28.0939 6.51166 27.7485 6.93713 27.7485H20.8114C21.2369 27.7485 21.5822 28.0939 21.5822 28.5193ZM29.2901 25.5456V16.1866C29.2901 14.0623 27.562 12.3327 25.4362 12.3327H23.0143C22.669 11.0069 21.4727 10.0203 20.0406 10.0203C18.3402 10.0203 16.9574 11.4031 16.9574 13.1035C16.9574 14.8038 18.3402 16.1866 20.0406 16.1866C21.4727 16.1866 22.669 15.2 23.0143 13.8743H25.4362C26.711 13.8743 27.7485 14.9118 27.7485 16.1866V25.5456C26.4228 25.8909 25.4362 27.0872 25.4362 28.5193C25.4362 30.2197 26.819 31.6025 28.5193 31.6025C30.2197 31.6025 31.6025 30.2197 31.6025 28.5193C31.6025 27.0872 30.6159 25.8909 29.2901 25.5456ZM20.0406 14.6451C19.1897 14.6451 18.499 13.9529 18.499 13.1035C18.499 12.2541 19.1897 11.5619 20.0406 11.5619C20.8916 11.5619 21.5822 12.2541 21.5822 13.1035C21.5822 13.9529 20.8916 14.6451 20.0406 14.6451ZM28.5193 30.0609C27.6684 30.0609 26.9777 29.3703 26.9777 28.5193C26.9777 27.6684 27.6684 26.9777 28.5193 26.9777C29.3703 26.9777 30.0609 27.6684 30.0609 28.5193C30.0609 29.3703 29.3703 30.0609 28.5193 30.0609Z" fill="black"/>
</svg>
