<svg width="35" height="32" viewBox="0 0 35 32" fill="none" xmlns="http://www.w3.org/2000/svg">
<path d="M9.26228 26.8455V30.5176M25.7869 26.8455V30.5176M4.30491 11.8706C2.65246 11.9073 1 12.6546 1 13.9931V21.3373C1 24.3797 3.2198 26.8455 5.95737 26.8455H29.0918C31.8293 26.8455 34.0491 24.3797 34.0491 21.3373V13.9931C34.0491 12.5022 32.3967 11.8339 30.7442 11.8706M4.30491 11.8706C5.95737 11.8339 7.60983 12.5022 7.60983 13.9931C7.60983 16.4956 8.02294 19.5013 11.282 19.5013H23.7672C27.0262 19.5013 27.4393 16.4956 27.4393 13.9931C27.4393 12.6527 29.0918 11.9091 30.7442 11.8706M4.30491 11.8706V6.64881C4.30491 3.60646 6.52471 1.14062 9.26228 1.14062H25.7869C28.5244 1.14062 30.7442 3.60646 30.7442 6.64881V11.8706" stroke="black" stroke-width="1.5" stroke-linecap="round" stroke-linejoin="round"/>
</svg>
