<?xml version="1.0" encoding="UTF-8"?>
<svg id="Layer_2" data-name="Layer 2" xmlns="http://www.w3.org/2000/svg" viewBox="0 0 915 212.8">
  <defs>
    <style>
      .cls-1 {
        fill: #fff;
        stroke-width: 0px;
      }
    </style>
  </defs>
  <g id="Layer_1-2" data-name="Layer 1">
    <g>
      <g>
        <path class="cls-1" d="m273.9,146.3l34.2-88.7h19.3l34.1,88.7h-18.5l-7.4-19.5h-36.3l-7.5,19.5h-18Zm30.8-34.2h25.6l-12.8-33.6-12.8,33.6Z"/>
        <path class="cls-1" d="m404.9,147.3c-5.7,0-11.2-1-16.4-3-5.2-2-9.7-4.9-13.6-8.8-3.9-3.9-7-8.6-9.2-14.3-2.2-5.6-3.4-12.1-3.4-19.3s1.1-13.1,3.2-18.6c2.1-5.6,5.1-10.4,9.1-14.3s8.6-7,14-9.2c5.4-2.2,11.4-3.2,17.9-3.2s13.8,1.3,19.4,3.9c5.6,2.6,10.1,6.3,13.4,11,3.4,4.7,5.4,10.2,6,16.4h-17.4c-.5-3.4-1.8-6.3-3.7-8.8-2-2.5-4.5-4.4-7.4-5.8-3-1.4-6.4-2-10.3-2s-7.6.7-10.9,2.2c-3.3,1.4-6.1,3.5-8.4,6.2-2.3,2.7-4.1,5.9-5.5,9.7-1.3,3.8-2,8-2,12.6s1.1,11.6,3.4,16.2c2.3,4.6,5.5,8.2,9.6,10.7,4.1,2.5,8.9,3.8,14.4,3.8s6.3-.5,9-1.5c2.7-1,5.1-2.3,7.1-4.1,2-1.8,3.7-3.9,4.9-6.4,1.2-2.5,1.9-5.2,2.1-8.1h-26.6v-13.6h42.6v47.3h-16v-10.1c-1.2,2.1-3,4-5.5,5.6-2.5,1.6-5.3,3-8.6,4-3.3,1-7,1.5-11.2,1.5Z"/>
        <path class="cls-1" d="m460.5,146.3V57.5h24.1l18.5,44.9c1.8,4.2,3.2,7.9,4.3,11,1.1,3.1,2.1,6.3,3,9.7,1-3.4,2-6.6,3.1-9.7,1.1-3.1,2.4-6.8,4.1-11.1l18.8-44.8h23.5v88.7h-17.4v-43.4c0-4.6,0-8.6.2-11.9.1-3.3.3-6.7.6-10.1-1.1,3.3-2.3,6.5-3.5,9.5-1.3,3-2.7,6.7-4.3,11l-18.6,44.9h-13.2l-18.6-44.9c-1.6-4.3-3-8-4.2-11-1.2-3-2.3-6.2-3.4-9.6.2,3.6.3,7.1.4,10.3,0,3.2.1,7.1.1,11.8v43.4h-17.4Z"/>
        <path class="cls-1" d="m600.9,146.3l-32.6-88.7h18.3l24.3,66.9,24.1-66.9h17.9l-32.7,88.7h-19.3Z"/>
      </g>
      <g>
        <path class="cls-1" d="m676.7,94.7l8.8-21.8h2.5l8.8,21.8h-2.2l-2.4-6h-10.8l-2.4,6h-2.2Zm5.3-7.9h9.4l-4.7-11.7-4.7,11.7Z"/>
        <path class="cls-1" d="m699.5,94.7v-22.1h2.1v22.1h-2.1Zm0-20.3v-1.7h2.1v1.7h-2.1Zm0,20.3v-1.7h2.1v1.7h-2.1Z"/>
        <path class="cls-1" d="m706.6,100.4v-22.9h2v3.6c.4-.7.9-1.4,1.6-2,.7-.6,1.5-1,2.3-1.3.9-.3,1.8-.5,2.7-.5,1.6,0,3.1.4,4.3,1.1,1.2.7,2.2,1.8,2.9,3.1.7,1.3,1.1,2.9,1.1,4.7s-.2,2.5-.6,3.6c-.4,1.1-1,2-1.7,2.8-.7.8-1.6,1.4-2.6,1.8-1,.4-2.1.6-3.4.6s-1.9-.2-2.8-.5-1.7-.8-2.3-1.3c-.7-.6-1.2-1.2-1.6-1.9v9.2h-2Zm8.5-7.2c1.2,0,2.4-.3,3.3-.9,1-.6,1.7-1.4,2.3-2.5.5-1.1.8-2.3.8-3.7s-.3-2.6-.8-3.7c-.6-1.1-1.3-1.9-2.3-2.5-1-.6-2.1-.9-3.3-.9s-1.8.2-2.6.5c-.8.3-1.5.8-2.1,1.5-.6.6-1,1.4-1.4,2.2s-.5,1.8-.5,2.8.3,2.6.8,3.7c.5,1.1,1.3,1.9,2.3,2.5,1,.6,2.1.9,3.3.9Z"/>
        <path class="cls-1" d="m727.4,94.7v-22.1h2.1v8.7c.4-.8.9-1.5,1.5-2.1s1.4-1.1,2.2-1.5c.8-.4,1.7-.5,2.7-.5s2.3.2,3.2.7c1,.5,1.7,1.2,2.3,2.1s.8,1.9.8,3.1v11.6h-2.1v-11.2c0-.9-.2-1.7-.6-2.4-.4-.7-.9-1.2-1.6-1.6s-1.5-.5-2.3-.5-2.3.3-3.2.9-1.7,1.5-2.2,2.7c-.5,1.2-.8,2.7-.8,4.4v7.6h-2.1Z"/>
        <path class="cls-1" d="m751.9,95c-1.2,0-2.2-.2-3.1-.6-.9-.4-1.5-.9-2-1.7-.5-.7-.7-1.6-.7-2.5,0-1.6.6-2.8,1.7-3.8,1.2-1,3-1.6,5.4-1.8l5.5-.6v1.7l-5.4.6c-1.1.1-2.1.4-2.9.7-.8.3-1.4.8-1.7,1.3s-.6,1.2-.6,1.9.4,1.7,1.1,2.3c.7.5,1.7.8,3,.8s2.2-.3,3.1-.8c.9-.5,1.6-1.3,2.1-2.4.5-1,.8-2.3.8-3.8v-3.1c0-.9-.2-1.6-.6-2.2-.4-.6-1-1.1-1.7-1.5-.7-.4-1.5-.5-2.5-.5-1.4,0-2.5.4-3.5,1.1s-1.5,1.8-1.7,3h-2c.2-1.2.6-2.2,1.2-3.1.7-.9,1.5-1.6,2.5-2.1,1-.5,2.2-.8,3.4-.8s2.5.3,3.5.8c1,.5,1.8,1.2,2.4,2.2s.9,2,.9,3.3v11.3h-2v-3.6c-.2.7-.7,1.4-1.3,2s-1.3,1-2.2,1.4c-.9.3-1.8.5-2.8.5Z"/>
        <path class="cls-1" d="m781.3,95c-1.5,0-2.9-.3-4.2-.8-1.3-.5-2.4-1.3-3.3-2.2s-1.6-2.1-2.1-3.5-.8-2.9-.8-4.7.2-3.2.7-4.6c.5-1.4,1.2-2.5,2.1-3.5s2-1.7,3.3-2.3c1.3-.5,2.7-.8,4.3-.8s3.1.3,4.4.9c1.3.6,2.3,1.4,3.1,2.5.8,1.1,1.3,2.3,1.4,3.7h-2.1c-.2-1.1-.6-2.1-1.3-2.8-.7-.8-1.5-1.4-2.4-1.8s-2-.6-3.1-.6-2.4.2-3.4.7c-1,.4-1.9,1.1-2.6,1.9s-1.3,1.8-1.7,2.9-.6,2.4-.6,3.8.3,3.5,1,4.9,1.7,2.5,2.9,3.2c1.3.8,2.7,1.2,4.4,1.2s2.1-.2,3-.5c.9-.4,1.6-.9,2.3-1.6s1.1-1.5,1.5-2.4c.3-.9.5-2,.5-3.1h-8.3v-1.7h10.2v10.9h-2v-4c-.4.9-.9,1.6-1.6,2.3-.7.6-1.6,1.1-2.6,1.4-1,.3-2,.5-3.1.5Z"/>
        <path class="cls-1" d="m799.9,95c-1.2,0-2.2-.2-3.1-.6-.9-.4-1.5-.9-2-1.7-.5-.7-.7-1.6-.7-2.5,0-1.6.6-2.8,1.7-3.8,1.2-1,3-1.6,5.4-1.8l5.5-.6v1.7l-5.4.6c-1.1.1-2.1.4-2.9.7-.8.3-1.4.8-1.7,1.3s-.6,1.2-.6,1.9.4,1.7,1.1,2.3c.7.5,1.7.8,3,.8s2.2-.3,3.1-.8c.9-.5,1.6-1.3,2.1-2.4.5-1,.8-2.3.8-3.8v-3.1c0-.9-.2-1.6-.6-2.2-.4-.6-1-1.1-1.7-1.5-.7-.4-1.5-.5-2.5-.5-1.4,0-2.5.4-3.5,1.1s-1.5,1.8-1.7,3h-2c.2-1.2.6-2.2,1.2-3.1.7-.9,1.5-1.6,2.5-2.1,1-.5,2.2-.8,3.4-.8s2.5.3,3.5.8c1,.5,1.8,1.2,2.4,2.2s.9,2,.9,3.3v11.3h-2v-3.6c-.2.7-.7,1.4-1.3,2s-1.3,1-2.2,1.4c-.9.3-1.8.5-2.8.5Z"/>
        <path class="cls-1" d="m812.9,94.7v-17.3h2.1v3.9c.3-.8.8-1.6,1.4-2.2.6-.6,1.3-1.1,2.1-1.4.8-.4,1.6-.5,2.5-.5s1.8.2,2.6.5c.8.4,1.4.9,1.9,1.6.5.7.9,1.5,1.1,2.5.5-1.5,1.4-2.6,2.5-3.4,1.1-.8,2.4-1.2,3.8-1.2s2.1.2,3,.7c.9.5,1.6,1.2,2.1,2.1.5.9.8,1.9.8,3.1v11.6h-2.1v-11.1c0-1.4-.4-2.6-1.2-3.4-.8-.8-1.8-1.2-3-1.2s-2.1.3-2.9,1-1.5,1.6-2,2.9c-.5,1.2-.7,2.7-.7,4.4v7.4h-2v-11.1c0-1.4-.4-2.6-1.2-3.4-.8-.8-1.8-1.2-3-1.2s-2.1.3-2.9,1c-.8.7-1.5,1.6-1.9,2.9-.5,1.2-.7,2.7-.7,4.4v7.4h-2.1Z"/>
        <path class="cls-1" d="m843.4,94.7v-17.3h2.1v3.9c.3-.8.8-1.6,1.4-2.2.6-.6,1.3-1.1,2.1-1.4.8-.4,1.6-.5,2.5-.5s1.8.2,2.6.5c.8.4,1.4.9,1.9,1.6.5.7.9,1.5,1.1,2.5.5-1.5,1.4-2.6,2.5-3.4,1.1-.8,2.4-1.2,3.8-1.2s2.1.2,3,.7c.9.5,1.6,1.2,2.1,2.1.5.9.8,1.9.8,3.1v11.6h-2.1v-11.1c0-1.4-.4-2.6-1.2-3.4-.8-.8-1.8-1.2-3-1.2s-2.1.3-2.9,1c-.8.7-1.5,1.6-2,2.9-.5,1.2-.7,2.7-.7,4.4v7.4h-2v-11.1c0-1.4-.4-2.6-1.2-3.4-.8-.8-1.8-1.2-3-1.2s-2.1.3-2.9,1c-.8.7-1.5,1.6-1.9,2.9-.5,1.2-.7,2.7-.7,4.4v7.4h-2.1Z"/>
        <path class="cls-1" d="m878.8,95c-1.2,0-2.2-.2-3.1-.6-.9-.4-1.5-.9-2-1.7-.5-.7-.7-1.6-.7-2.5,0-1.6.6-2.8,1.7-3.8,1.2-1,3-1.6,5.4-1.8l5.5-.6v1.7l-5.4.6c-1.1.1-2.1.4-2.9.7-.8.3-1.4.8-1.7,1.3-.4.5-.6,1.2-.6,1.9s.4,1.7,1.1,2.3c.7.5,1.7.8,3,.8s2.2-.3,3.1-.8c.9-.5,1.6-1.3,2.1-2.4.5-1,.8-2.3.8-3.8v-3.1c0-.9-.2-1.6-.6-2.2-.4-.6-1-1.1-1.7-1.5s-1.5-.5-2.5-.5c-1.4,0-2.5.4-3.5,1.1-1,.7-1.5,1.8-1.7,3h-2c.2-1.2.6-2.2,1.2-3.1.7-.9,1.5-1.6,2.5-2.1,1-.5,2.2-.8,3.4-.8s2.5.3,3.5.8c1,.5,1.8,1.2,2.4,2.2.6.9.9,2,.9,3.3v11.3h-2v-3.6c-.2.7-.7,1.4-1.3,2-.6.6-1.3,1-2.2,1.4-.9.3-1.8.5-2.8.5Z"/>
        <path class="cls-1" d="m679,132.1v-21.8h3.1l6.6,15.7c.4.8.6,1.5.8,2,.2.6.4,1.1.6,1.7.2-.6.4-1.1.6-1.7.2-.5.5-1.2.8-2l6.6-15.7h3.1v21.8h-2.1v-15.3c0-.9,0-1.6,0-2.2,0-.6,0-1.2,0-1.8-.2.6-.4,1.1-.7,1.7-.2.5-.5,1.2-.9,2l-6.6,15.6h-2.1l-6.6-15.6c-.4-.8-.6-1.5-.9-2-.2-.5-.4-1.1-.6-1.7,0,.6,0,1.2,0,1.8v17.5h-2.1Z"/>
        <path class="cls-1" d="m711.3,132.4c-1.2,0-2.2-.2-3.1-.6-.9-.4-1.5-.9-2-1.7-.5-.7-.7-1.6-.7-2.5,0-1.6.6-2.8,1.7-3.8,1.2-1,3-1.6,5.4-1.8l5.5-.6v1.7l-5.4.6c-1.1.1-2.1.4-2.9.7-.8.3-1.4.8-1.7,1.3s-.6,1.2-.6,1.9.4,1.7,1.1,2.3c.7.5,1.7.8,3,.8s2.2-.3,3.1-.8c.9-.5,1.6-1.3,2.1-2.4.5-1,.8-2.3.8-3.8v-3.1c0-.9-.2-1.6-.6-2.2-.4-.6-1-1.1-1.7-1.5-.7-.4-1.5-.5-2.5-.5-1.4,0-2.5.4-3.5,1.1s-1.5,1.8-1.7,3h-2c.2-1.2.6-2.2,1.2-3.1.7-.9,1.5-1.6,2.5-2.1,1-.5,2.2-.8,3.4-.8s2.5.3,3.5.8c1,.5,1.8,1.2,2.4,2.2s.9,2,.9,3.3v11.3h-2v-3.6c-.2.7-.7,1.4-1.3,2s-1.3,1-2.2,1.4c-.9.3-1.8.5-2.8.5Z"/>
        <path class="cls-1" d="m724.3,132.1v-17.3h2.1v4c.3-.9.7-1.6,1.2-2.2.5-.6,1.2-1.1,1.9-1.5.7-.4,1.5-.5,2.3-.5s.8,0,1.2,0,.7.2.9.3v2c-.4-.1-.7-.3-1.1-.3-.4,0-.7-.1-1.1-.1-.8,0-1.5.2-2.1.6-.7.4-1.2,1-1.7,1.7-.5.8-.8,1.7-1.1,2.8-.3,1.1-.4,2.4-.4,3.8v6.7h-2.1Z"/>
        <path class="cls-1" d="m736.7,132.1v-22.1h2.1v22.1h-2.1Zm1.8-6.5v-2.5l9.5-8.2h2.8l-12.2,10.7Zm10.4,6.5l-7.7-9.7,1.6-1.3,8.6,11h-2.5Z"/>
        <path class="cls-1" d="m759.9,132.4c-1.7,0-3.1-.4-4.4-1.1-1.3-.8-2.2-1.8-2.9-3.1-.7-1.3-1-2.9-1-4.6s.2-2.5.6-3.6,1-2,1.7-2.8c.7-.8,1.6-1.4,2.6-1.8,1-.4,2.1-.7,3.3-.7s2.4.2,3.4.7c1,.4,1.8,1.1,2.5,1.9.7.8,1.2,1.7,1.5,2.8s.4,2.2.2,3.5h-14.8v-1.7h12.7c0-1.1-.2-2-.7-2.8-.5-.8-1.1-1.4-2-1.9-.8-.4-1.8-.7-2.9-.7s-1.8.2-2.5.5c-.8.3-1.4.8-2,1.4-.6.6-1,1.4-1.3,2.2s-.5,1.8-.5,2.9.3,2.7.8,3.7c.5,1.1,1.3,1.9,2.2,2.5.9.6,2,.9,3.3.9s1.9-.2,2.6-.5,1.4-.8,1.9-1.4c.5-.6.8-1.2.9-2h2.1c-.2,1.1-.6,2.1-1.2,2.9-.6.9-1.5,1.5-2.5,2-1,.5-2.3.7-3.7.7Z"/>
        <path class="cls-1" d="m769.1,116.6v-1.7h8.9v1.7h-8.9Zm7.2,15.8c-.9,0-1.6-.2-2.3-.5s-1.2-.9-1.6-1.7c-.4-.7-.6-1.6-.6-2.7v-16.2h2v16.1c0,1,.2,1.8.7,2.4.5.5,1.1.8,1.9.8s.7,0,1,0c.3,0,.6-.1.9-.2v1.8c-.3.1-.6.2-1,.3-.4,0-.7.1-1.1.1Z"/>
        <path class="cls-1" d="m793.8,132.1l-8.4-21.8h2.2l7.5,19.4,7.5-19.4h2.1l-8.4,21.8h-2.5Z"/>
        <path class="cls-1" d="m813.2,132.4c-1.7,0-3.1-.4-4.4-1.1-1.3-.8-2.2-1.8-2.9-3.1-.7-1.3-1-2.9-1-4.6s.2-2.5.6-3.6,1-2,1.7-2.8c.7-.8,1.6-1.4,2.6-1.8,1-.4,2.1-.7,3.3-.7s2.4.2,3.4.7c1,.4,1.8,1.1,2.5,1.9.7.8,1.2,1.7,1.5,2.8s.4,2.2.2,3.5h-14.8v-1.7h12.7c0-1.1-.2-2-.7-2.8-.5-.8-1.1-1.4-2-1.9-.8-.4-1.8-.7-2.9-.7s-1.8.2-2.5.5c-.8.3-1.4.8-2,1.4-.6.6-1,1.4-1.3,2.2s-.5,1.8-.5,2.9.3,2.7.8,3.7c.5,1.1,1.3,1.9,2.2,2.5.9.6,2,.9,3.3.9s1.9-.2,2.6-.5,1.4-.8,1.9-1.4c.5-.6.8-1.2.9-2h2.1c-.2,1.1-.6,2.1-1.2,2.9-.6.9-1.5,1.5-2.5,2-1,.5-2.3.7-3.7.7Z"/>
        <path class="cls-1" d="m824.6,132.1v-17.3h2.1v3.9c.4-.8.9-1.5,1.5-2.1s1.4-1.1,2.2-1.5c.8-.4,1.7-.5,2.7-.5s2.3.2,3.2.7c1,.5,1.7,1.2,2.3,2.1s.8,1.9.8,3.1v11.6h-2v-11.2c0-.9-.2-1.7-.6-2.4-.4-.7-.9-1.2-1.6-1.6-.7-.4-1.5-.5-2.3-.5s-2.3.3-3.2.9-1.7,1.5-2.2,2.7c-.5,1.2-.8,2.7-.8,4.4v7.6h-2.1Z"/>
        <path class="cls-1" d="m841.9,116.6v-1.7h8.9v1.7h-8.9Zm7.2,15.8c-.9,0-1.6-.2-2.3-.5s-1.2-.9-1.6-1.7c-.4-.7-.6-1.6-.6-2.7v-16.2h2v16.1c0,1,.2,1.8.7,2.4.5.5,1.1.8,1.9.8s.7,0,1,0c.3,0,.6-.1.9-.2v1.8c-.3.1-.6.2-1,.3-.4,0-.7.1-1.1.1Z"/>
        <path class="cls-1" d="m860.2,132.4c-1.2,0-2.2-.2-3.2-.7-.9-.5-1.7-1.2-2.3-2.1s-.8-1.9-.8-3.1v-11.6h2v11.2c0,.9.2,1.7.6,2.4.4.7.9,1.2,1.6,1.6.7.4,1.5.5,2.4.5s2.3-.3,3.2-.9,1.7-1.5,2.2-2.8.8-2.7.8-4.3v-7.6h2.1v17.3h-2.1v-3.8c-.4.8-.9,1.5-1.5,2.1s-1.4,1.1-2.2,1.4c-.8.3-1.7.5-2.7.5Z"/>
        <path class="cls-1" d="m873.7,132.1v-17.3h2.1v4c.3-.9.7-1.6,1.2-2.2.5-.6,1.2-1.1,1.9-1.5.7-.4,1.5-.5,2.3-.5s.8,0,1.2,0c.4,0,.7.2.9.3v2c-.4-.1-.7-.3-1.1-.3-.4,0-.7-.1-1.1-.1-.8,0-1.5.2-2.1.6-.7.4-1.2,1-1.7,1.7-.5.8-.8,1.7-1.1,2.8-.3,1.1-.4,2.4-.4,3.8v6.7h-2.1Z"/>
        <path class="cls-1" d="m892.2,132.4c-1.7,0-3.1-.4-4.4-1.1s-2.2-1.8-2.9-3.1c-.7-1.3-1-2.9-1-4.6s.2-2.5.6-3.6,1-2,1.7-2.8c.7-.8,1.6-1.4,2.6-1.8,1-.4,2.1-.7,3.3-.7s2.4.2,3.4.7c1,.4,1.8,1.1,2.5,1.9.7.8,1.2,1.7,1.5,2.8s.4,2.2.2,3.5h-14.8v-1.7h12.7c0-1.1-.2-2-.7-2.8-.5-.8-1.1-1.4-2-1.9-.8-.4-1.8-.7-2.9-.7s-1.8.2-2.5.5c-.8.3-1.4.8-2,1.4-.6.6-1,1.4-1.3,2.2-.3.9-.5,1.8-.5,2.9s.3,2.7.8,3.7c.5,1.1,1.3,1.9,2.2,2.5.9.6,2,.9,3.3.9s1.9-.2,2.6-.5c.8-.3,1.4-.8,1.9-1.4.5-.6.8-1.2.9-2h2.1c-.2,1.1-.6,2.1-1.2,2.9-.6.9-1.5,1.5-2.5,2-1,.5-2.3.7-3.7.7Z"/>
        <path class="cls-1" d="m909,132.4c-1.4,0-2.6-.2-3.6-.7-1-.5-1.7-1.2-2.3-2-.5-.8-.8-1.8-.9-2.9h2.1c0,.8.3,1.5.7,2,.4.6.9,1,1.6,1.3.7.3,1.5.5,2.4.5s1.5-.1,2.1-.4,1.1-.7,1.4-1.2c.3-.5.5-1.1.5-1.7s-.2-1.3-.6-1.7-.9-.8-1.5-1c-.6-.2-1.3-.5-2-.7-.7-.2-1.5-.4-2.2-.6-.7-.2-1.4-.5-2-.8-.6-.3-1.1-.8-1.5-1.3-.4-.5-.6-1.2-.6-2.1s.2-1.6.7-2.3c.5-.7,1.1-1.2,2-1.6.9-.4,1.9-.6,3-.6s2.4.2,3.3.6c.9.4,1.6,1,2.1,1.7.5.7.8,1.6.9,2.6h-2.1c-.1-.7-.3-1.3-.7-1.7-.4-.5-.8-.8-1.4-1.1-.6-.2-1.2-.4-1.9-.4s-1.3.1-1.9.3c-.6.2-1,.5-1.3.9-.3.4-.5.9-.5,1.4s.2,1.1.6,1.4c.4.4.9.6,1.5.8.6.2,1.3.4,2,.5.7.2,1.5.4,2.2.6.7.2,1.4.5,2,.9.6.4,1.1.9,1.5,1.5.4.6.6,1.4.6,2.4s-.2,1.9-.7,2.7c-.5.8-1.2,1.4-2.1,1.8-.9.4-2,.7-3.2.7Z"/>
      </g>
      <g>
        <polygon class="cls-1" points="101.1 212.8 154.1 159.8 101.1 159.8 111.7 149.1 164.7 149.1 202.1 111.7 0 111.7 101.1 212.8"/>
        <polygon class="cls-1" points="101.1 0 48.1 53 154.1 53 101.1 0"/>
        <polygon class="cls-1" points="37.4 63.6 0 101.1 202.1 101.1 164.7 63.6 37.4 63.6"/>
      </g>
      <rect class="cls-1" x="237.9" width="1.4" height="212.8"/>
    </g>
  </g>
</svg>